<!-- icon666.com - MILLIONS vector ICONS FREE --><svg clip-rule="evenodd" fill-rule="evenodd" image-rendering="optimizeQuality" shape-rendering="geometricPrecision" text-rendering="geometricPrecision" viewBox="0 0 512 512" xmlns="http://www.w3.org/2000/svg"><g id="Layer_x0020_1"><path d="m256 512c-141 0-256-115-256-256s115-256 256-256 256 115 256 256-115 256-256 256z" fill="#e03a1a"></path><path d="m256 478c-122 0-222-100-222-222s100-222 222-222 222 100 222 222-100 222-222 222z" fill="#bf381f"></path><path d="m256 464c-115 0-208-93-208-208s93-208 208-208 208 93 208 208-93 208-208 208z" fill="#e0eef1"></path><path d="m348 384c-2 0-4-1-5-2l-87-86-86 86c-3 3-7 3-10 0l-30-29c-1-2-2-4-2-5 0-3 1-4 2-5l86-87-86-86c-1-1-2-3-2-5s1-3 2-5l30-29c1-1 3-2 5-2 2 0 4 1 5 2l86 86 86-86c1-1 3-2 5-2 2 0 3 1 5 2l29 29c3 3 3 8 0 11l-85 85 86 86c3 3 3 8 0 11l-29 29c-2 1-4 2-5 2z" fill="#e03a1a"></path></g></svg>